<svg width="417" height="159" viewBox="0 0 417 159" fill="none" xmlns="http://www.w3.org/2000/svg">
<path d="M37.6521 119.677C28.2119 119.677 21.3166 117.501 16.9663 113.151C12.6159 108.801 10.4408 101.905 10.4408 92.4652V62.7742C10.4408 53.247 12.5942 46.33 16.901 42.0232C21.2513 37.7163 28.1249 35.5629 37.5216 35.5629H53.3133C61.3179 35.5629 67.2778 37.2378 71.1931 40.5876C75.1084 43.8938 77.2618 49.223 77.6533 56.575C77.7839 57.7496 77.5446 58.6414 76.9355 59.2505C76.37 59.8595 75.5217 60.164 74.3906 60.164C72.2154 60.164 71.0191 59.0112 70.8016 56.7055C70.4971 51.3111 69.0179 47.5916 66.3642 45.5469C63.7105 43.4588 59.3602 42.4147 53.3133 42.4147H37.5216C32.5187 42.4147 28.5381 43.0673 25.5799 44.3723C22.6217 45.6339 20.49 47.7656 19.1849 50.7673C17.9233 53.7256 17.2926 57.7279 17.2926 62.7742V92.4652C17.2926 97.5116 17.9451 101.514 19.2502 104.472C20.5553 107.43 22.687 109.562 25.6452 110.867C28.6034 112.172 32.6057 112.825 37.6521 112.825H53.3133C59.3602 112.825 63.7105 111.802 66.3642 109.758C69.0179 107.67 70.4971 103.928 70.8016 98.5339C71.0191 96.2283 72.2154 95.0754 74.3906 95.0754C75.5217 95.0754 76.37 95.4017 76.9355 96.0542C77.5446 96.6633 77.7839 97.5333 77.6533 98.6644C77.2618 106.016 75.1084 111.367 71.1931 114.717C67.2778 118.023 61.3179 119.677 53.3133 119.677H37.6521ZM155.899 119.807C154.942 120.373 154.072 120.568 153.289 120.394C152.506 120.22 151.81 119.677 151.201 118.763L129.797 84.6999H105.849V116.218C105.849 118.524 104.717 119.677 102.455 119.677C100.15 119.677 98.9968 118.524 98.9968 116.218V39.0214C98.9968 36.7158 100.15 35.5629 102.455 35.5629H132.995C140.434 35.5629 146.046 37.4771 149.83 41.3054C153.659 45.1337 155.573 50.7673 155.573 58.2064V62.1217C155.573 68.6907 154.072 73.8458 151.07 77.5871C148.068 81.3284 143.631 83.6123 137.758 84.4389L157.008 115.109C158.226 117.11 157.857 118.676 155.899 119.807ZM105.849 77.8481H132.995C138.476 77.8481 142.457 76.6083 144.936 74.1286C147.459 71.6054 148.721 67.6031 148.721 62.1217V58.2064C148.721 52.6815 147.459 48.6792 144.936 46.1995C142.457 43.6763 138.476 42.4147 132.995 42.4147H105.849V77.8481ZM169.769 119.35C167.681 118.437 167.05 116.914 167.876 114.782L200.243 38.2384C200.939 36.4548 202.222 35.5629 204.093 35.5629H204.484C206.268 35.6064 207.53 36.4983 208.269 38.2384L240.636 114.782C241.506 116.914 240.897 118.437 238.808 119.35C236.677 120.22 235.198 119.611 234.371 117.523L225.692 96.9678H182.95L174.271 117.523C173.401 119.611 171.9 120.22 169.769 119.35ZM185.756 90.116H222.821L204.289 46.3953L185.756 90.116ZM259.985 119.677C257.679 119.677 256.526 118.524 256.526 116.218V39.0214C256.526 36.7158 257.679 35.5629 259.985 35.5629H294.048C300.443 35.5629 305.272 37.1943 308.534 40.4571C311.841 43.6763 313.494 48.4182 313.494 54.6826V58.2064C313.494 65.0364 311.297 69.8653 306.903 72.693C314.516 75.8252 318.323 82.6117 318.323 93.0525V97.1636C318.323 104.559 316.408 110.171 312.58 113.999C308.795 117.784 303.183 119.677 295.744 119.677H259.985ZM263.378 112.825H295.744C301.269 112.825 305.272 111.585 307.751 109.105C310.231 106.626 311.471 102.645 311.471 97.1636V93.0525C311.471 87.5711 310.231 83.6123 307.751 81.1761C305.315 78.7399 301.313 77.5218 295.744 77.5218H263.378V112.825ZM263.378 70.6701H295.027C298.985 70.6701 301.9 69.6695 303.771 67.6684C305.685 65.6237 306.642 62.4697 306.642 58.2064V54.6826C306.642 50.3323 305.641 47.2001 303.64 45.2859C301.683 43.3718 298.485 42.4147 294.048 42.4147H263.378V70.6701Z" fill="black"/>
<path d="M355.897 73.4419L353.756 76.8274L327.818 35.5551H332.05L355.897 73.4419ZM373.571 100.376L375.662 96.9905L388.905 118H384.673L373.571 100.376ZM360.129 66.7707L357.988 70.1063L336.281 35.5551H340.463L360.129 66.7707ZM377.803 93.6549L379.894 90.2695L397.368 118H393.137L377.803 93.6549ZM364.36 59.9998L362.269 63.3355L344.745 35.5551H348.977L364.36 59.9998ZM382.084 86.884L384.175 83.4986L405.882 118H401.65L382.084 86.884ZM368.592 53.2788L366.501 56.6642L353.209 35.5551H357.44L368.592 53.2788ZM386.266 80.163L388.357 76.7776L414.345 118H410.113L386.266 80.163ZM407.624 35.5551H411.856L359.979 118H355.748L407.624 35.5551ZM399.21 35.5551H403.392L351.516 118H347.284L399.21 35.5551ZM390.697 35.5551H394.929L343.002 118H338.771L390.697 35.5551ZM382.233 35.5551H386.465L334.539 118H330.307L382.233 35.5551Z" fill="black"/>
</svg>
