<svg width="61" height="60" viewBox="0 0 61 60" fill="none" xmlns="http://www.w3.org/2000/svg">
<path d="M30.0927 0H29.9562C13.4302 0 0.0333252 13.4009 0.0333252 29.9317V30.0683C0.0333252 46.5991 13.4302 60 29.9562 60H30.0927C46.6187 60 60.0156 46.5991 60.0156 30.0683V29.9317C60.0156 13.4009 46.6187 0 30.0927 0Z" fill="#FE5638"/>
<path d="M45.0342 16.2259C42.2729 14.9584 39.314 14.025 36.2185 13.4911C36.1618 13.4806 36.105 13.5058 36.0777 13.5584C35.6973 14.2353 35.275 15.1202 34.9808 15.8139C31.652 15.3157 28.3401 15.3157 25.0786 15.8139C24.7823 15.1034 24.3452 14.2353 23.9627 13.5584C23.9333 13.5079 23.8766 13.4827 23.822 13.4911C20.7286 14.025 17.7676 14.9584 15.0063 16.2259C14.9832 16.2364 14.9622 16.2533 14.9474 16.2764C9.33231 24.6679 7.79399 32.8535 8.54842 40.9381C8.55263 40.9781 8.57364 41.0159 8.60517 41.039C12.3101 43.7612 15.8994 45.4135 19.4215 46.5087C19.4782 46.5255 19.5371 46.5045 19.5728 46.4582C20.405 45.321 21.1489 44.1207 21.7856 42.8573C21.8235 42.7838 21.7856 42.6955 21.71 42.666C20.531 42.2183 19.4109 41.6739 18.3308 41.0558C18.2446 41.0054 18.2384 40.8835 18.3161 40.8246C18.5431 40.6543 18.77 40.4778 18.9865 40.2991C19.0264 40.2654 19.081 40.2592 19.1273 40.2802C26.2155 43.5174 33.8901 43.5174 40.8943 40.2802C40.9406 40.257 40.9952 40.2655 41.0351 40.297C41.2516 40.4757 41.4785 40.6543 41.7076 40.8246C41.7853 40.8835 41.7812 41.0054 41.695 41.0558C40.6169 41.6865 39.4947 42.2204 38.3137 42.666C38.236 42.6955 38.2023 42.7838 38.2401 42.8594C38.8916 44.1186 39.6334 45.3189 40.4509 46.4582C40.4845 46.5066 40.5454 46.5276 40.6022 46.5108C44.1411 45.4156 47.7304 43.7633 51.4353 41.0411C51.4668 41.018 51.4878 40.9802 51.492 40.9423C52.3957 31.5964 49.979 23.4782 45.0889 16.2806C45.0762 16.2575 45.0573 16.2386 45.0321 16.228L45.0342 16.2259ZM22.8405 36.015C20.7054 36.015 18.9487 34.0559 18.9487 31.649C18.9487 29.2421 20.6739 27.2829 22.8405 27.2829C25.0072 27.2829 26.7682 29.261 26.7325 31.649C26.7325 34.0559 25.0072 36.015 22.8405 36.015ZM37.2335 36.015C35.0984 36.015 33.3416 34.0559 33.3416 31.649C33.3416 29.2421 35.0669 27.2829 37.2335 27.2829C39.4001 27.2829 41.1612 29.261 41.1255 31.649C41.1255 34.0559 39.4191 36.015 37.2335 36.015Z" fill="white"/>
</svg>
