<svg width="1920" height="245" viewBox="0 0 1920 245" fill="none" xmlns="http://www.w3.org/2000/svg">
<rect x="4" y="96" width="1919" height="58" fill="url(#paint0_linear_1_376)"/>
<path d="M1918.88 88.3912C1902.55 88.3912 1883.16 96.3525 1868.46 110.438C1849.89 128.402 1826.21 128.198 1807.63 110.234C1792.73 96.1484 1775.58 87.7788 1756.8 87.7788C1738.63 87.7788 1721.69 95.536 1707.19 109.009C1688.41 126.156 1665.35 126.156 1646.57 108.805C1632.07 95.536 1615.13 87.7788 1596.96 87.7788C1578.79 87.7788 1561.85 95.536 1547.35 109.009C1528.78 126.156 1505.51 126.156 1486.73 108.805C1472.23 95.536 1455.29 87.7788 1437.33 87.7788H1437.12C1418.95 87.7788 1402.01 95.536 1387.52 109.009C1368.94 126.156 1345.67 126.156 1326.89 108.805C1312.39 95.536 1295.45 87.7788 1277.49 87.7788H1277.28C1259.11 87.7788 1242.17 95.536 1227.68 109.009C1209.1 126.156 1185.83 126.156 1167.05 108.805C1152.55 95.536 1135.61 87.7788 1117.65 87.7788H1117.44C1099.28 87.7788 1082.33 95.536 1068.04 109.009C1049.47 125.952 1025.79 125.952 1007.21 108.805C992.716 95.536 975.773 87.7788 957.809 87.7788H957.604C939.436 87.7788 922.493 95.536 908.203 109.009C889.423 126.156 866.151 126.156 847.371 108.805C832.877 95.536 815.934 87.7788 797.97 87.7788H797.766C779.597 87.7788 762.654 95.536 748.365 109.009C729.788 125.952 706.108 125.952 687.532 108.805C673.038 95.536 656.095 87.7788 638.131 87.7788H637.927C619.146 87.7788 601.794 96.1484 586.892 110.234C568.316 127.994 544.228 127.994 525.652 110.234C510.954 96.1484 493.602 87.7788 474.822 87.7788H474.617C456.449 87.7788 439.71 95.536 425.216 109.009C406.436 126.156 383.164 126.156 364.384 108.805C350.094 95.536 333.151 87.7788 314.983 87.7788H314.779C296.814 87.7788 279.871 95.536 265.377 109.009C246.597 126.156 223.325 126.156 204.545 108.805C190.255 95.536 173.312 87.7788 155.144 87.7788H154.94C136.976 87.7788 120.032 95.536 105.539 109.009C86.9622 125.952 65.732 126.973 47.3597 109.621C33.0701 96.1484 16.3309 88.3912 0 88.1871V118.603C16.3309 118.808 32.6618 126.361 46.7473 139.425C65.5278 156.777 87.7787 156.777 106.559 139.629C120.849 126.156 137.384 118.603 155.552 118.603C173.72 118.603 190.459 126.156 204.953 139.425C223.529 156.777 246.801 156.777 265.582 139.425C279.871 126.156 296.815 118.603 314.983 118.603C333.151 118.603 350.094 126.156 364.384 139.425C383.164 156.777 406.436 156.777 425.216 139.425C439.71 126.156 456.653 118.603 474.822 118.603C493.602 118.603 510.954 126.769 525.856 140.854C544.228 158.614 568.316 158.614 586.892 140.854C601.794 126.769 619.146 118.603 637.927 118.603C656.095 118.603 673.038 126.156 687.532 139.425C706.108 156.573 729.788 156.573 748.365 139.425C762.654 126.156 779.597 118.603 797.766 118.603C815.934 118.603 832.877 126.156 847.371 139.425C866.151 156.777 889.423 156.777 908.203 139.425C922.493 126.156 939.436 118.603 957.604 118.603C975.773 118.603 992.716 126.156 1007.21 139.425C1025.79 156.573 1049.47 156.573 1068.04 139.425C1082.33 126.156 1099.28 118.603 1117.44 118.603C1135.61 118.603 1152.55 126.156 1167.05 139.425C1185.62 156.573 1209.3 156.573 1227.68 139.425C1242.17 126.156 1259.11 118.603 1277.28 118.603C1295.45 118.603 1312.39 126.156 1326.89 139.425C1345.67 156.777 1368.94 156.777 1387.52 139.425C1402.01 126.156 1418.95 118.603 1437.12 118.603C1455.29 118.603 1472.23 126.156 1486.73 139.425C1505.51 156.777 1528.78 156.777 1547.35 139.425C1561.85 126.156 1578.79 118.603 1596.96 118.603C1615.13 118.603 1632.07 126.156 1646.57 139.425C1665.35 156.777 1688.41 156.777 1707.19 139.425C1721.69 126.156 1738.63 118.603 1756.8 118.603C1775.58 118.603 1793.14 126.769 1807.83 140.854C1826.41 158.614 1849.89 158.614 1868.46 140.854C1883.16 126.973 1902.55 118.808 1918.88 118.603V88.3912Z" fill="#24D6E9"/>
<path d="M1918.88 53.4842C1902.55 53.4842 1883.16 61.6496 1868.46 75.735C1849.89 93.4949 1826.21 94.5156 1807.63 76.5516C1792.73 62.4662 1775.58 55.1173 1756.8 55.1173C1738.63 55.1173 1721.69 61.8538 1707.19 75.1226C1688.41 92.4742 1665.35 92.8825 1646.57 75.735C1632.07 62.262 1615.13 55.1173 1596.96 55.1173C1578.79 55.1173 1561.85 61.8538 1547.35 75.1226C1528.78 92.4742 1505.51 92.8825 1486.73 75.735C1472.23 62.262 1455.29 55.1173 1437.33 55.1173H1437.12C1418.95 55.1173 1402.01 61.8538 1387.52 75.1226C1368.94 92.4742 1345.67 92.8825 1326.89 75.735C1312.39 62.262 1295.45 55.1173 1277.49 55.1173H1277.28C1259.11 55.1173 1242.17 61.8538 1227.68 75.1226C1209.1 92.4742 1185.83 92.8825 1167.05 75.735C1152.55 62.262 1135.61 55.1173 1117.65 55.1173H1117.44C1099.28 55.1173 1082.33 61.8538 1068.04 75.1226C1049.47 92.2701 1025.79 92.6784 1007.21 75.735C992.716 62.262 975.773 55.1173 957.809 55.1173H957.604C939.436 55.1173 922.493 61.8538 908.203 75.1226C889.423 92.4742 866.151 92.8825 847.371 75.735C832.877 62.262 815.934 55.1173 797.97 55.1173H797.766C779.597 55.1173 762.654 61.8538 748.365 75.1226C729.788 92.2701 706.108 92.6784 687.532 75.735C673.038 62.262 656.095 55.1173 638.131 55.1173H637.927C619.146 55.1173 601.794 62.4662 586.892 76.5516C568.316 94.3115 544.228 94.7197 525.652 76.9599C510.954 62.8744 493.602 55.1173 474.822 55.1173H474.617C456.449 55.1173 439.71 61.8538 425.216 75.1226C406.436 92.4742 383.164 92.8825 364.384 75.735C350.094 62.262 333.151 55.1173 314.983 55.1173H314.779C296.814 55.1173 279.871 61.8538 265.377 75.1226C246.597 92.4742 223.325 92.8825 204.545 75.735C190.255 62.262 173.312 55.1173 155.144 55.1173H154.94C136.976 55.1173 120.032 61.8538 105.539 75.1226C86.9622 92.2701 65.732 92.6784 47.3597 75.3268C33.0701 61.8538 16.3309 53.4842 0 53.28V83.6964C16.3309 84.1046 32.6618 91.6577 46.7473 104.722C65.5278 122.074 87.7787 122.074 106.559 104.722C120.849 91.4536 137.384 83.6964 155.552 83.6964C173.72 83.6964 190.459 91.4536 204.953 104.722C223.529 122.074 246.801 122.074 265.582 104.722C279.871 91.4536 296.815 83.6964 314.983 83.6964C333.151 83.6964 350.094 91.4536 364.384 104.722C383.164 122.074 406.436 122.074 425.216 104.722C439.71 91.4536 456.653 83.6964 474.822 83.6964C493.602 83.6964 510.954 91.8618 525.856 106.151C544.228 123.911 568.316 123.911 586.892 106.151C601.794 91.8618 619.146 83.6964 637.927 83.6964C656.095 83.6964 673.038 91.4536 687.532 104.722C706.108 121.87 729.788 121.87 748.365 104.722C762.654 91.4536 779.597 83.6964 797.766 83.6964C815.934 83.6964 832.877 91.4536 847.371 104.722C866.151 122.074 889.423 122.074 908.203 104.722C922.493 91.4536 939.436 83.6964 957.604 83.6964C975.773 83.6964 992.716 91.4536 1007.21 104.722C1025.79 121.87 1049.47 121.87 1068.04 104.722C1082.33 91.4536 1099.28 83.6964 1117.44 83.6964C1135.61 83.6964 1152.55 91.4536 1167.05 104.722C1185.62 121.87 1209.3 121.87 1227.68 104.722C1242.17 91.4536 1259.11 83.6964 1277.28 83.6964C1295.45 83.6964 1312.39 91.4536 1326.89 104.722C1345.67 122.074 1368.94 122.074 1387.52 104.722C1402.01 91.4536 1418.95 83.6964 1437.12 83.6964C1455.29 83.6964 1472.23 91.4536 1486.73 104.722C1505.51 122.074 1528.78 122.074 1547.35 104.722C1561.85 91.4536 1578.79 83.6964 1596.96 83.6964C1615.13 83.6964 1632.07 91.4536 1646.57 104.722C1665.35 122.074 1688.41 122.074 1707.19 104.722C1721.69 91.4536 1738.63 83.6964 1756.8 83.6964C1775.58 83.6964 1793.14 91.8618 1807.83 106.151C1826.41 123.911 1849.89 123.911 1868.46 106.151C1883.16 92.066 1902.55 83.9005 1918.88 83.6964V53.4842Z" fill="#3AF6FF"/>
<path d="M1918.88 123.095C1902.55 123.095 1883.16 131.26 1868.46 145.346C1849.89 163.106 1826.21 163.922 1807.63 146.162C1792.73 131.873 1775.58 124.524 1756.8 124.524C1738.63 124.524 1721.69 131.464 1707.19 144.733C1688.41 161.881 1665.35 162.289 1646.57 145.141C1632.07 131.873 1615.13 124.524 1596.96 124.524C1578.79 124.524 1561.85 131.464 1547.35 144.733C1528.78 161.881 1505.51 162.289 1486.73 145.141C1472.23 131.873 1455.29 124.524 1437.33 124.524H1437.12C1418.95 124.524 1402.01 131.464 1387.52 144.733C1368.94 161.881 1345.67 162.289 1326.89 145.141C1312.39 131.873 1295.45 124.524 1277.49 124.524H1277.28C1259.11 124.524 1242.17 131.464 1227.68 144.733C1209.1 161.881 1185.83 162.289 1167.05 145.141C1152.55 131.873 1135.61 124.524 1117.65 124.524H1117.44C1099.28 124.524 1082.33 131.464 1068.04 144.733C1049.47 161.677 1025.79 162.085 1007.21 145.141C992.716 131.873 975.773 124.524 957.809 124.524H957.604C939.436 124.524 922.493 131.464 908.203 144.733C889.423 161.881 866.151 162.289 847.371 145.141C832.877 131.873 815.934 124.524 797.97 124.524H797.766C779.597 124.524 762.654 131.464 748.365 144.733C729.788 161.677 706.108 162.085 687.532 145.141C673.038 131.873 656.095 124.524 638.131 124.524H637.927C619.146 124.524 601.794 131.873 586.892 145.958C568.316 163.922 544.228 164.33 525.652 146.366C510.954 132.281 493.602 124.524 474.822 124.524H474.617C456.449 124.524 439.71 131.464 425.216 144.733C406.436 161.881 383.164 162.289 364.384 145.141C350.094 131.873 333.151 124.524 314.983 124.524H314.779C296.814 124.524 279.871 131.464 265.377 144.733C246.597 161.881 223.325 162.289 204.545 145.141C190.255 131.873 173.312 124.524 155.144 124.524H154.94C136.976 124.524 120.032 131.464 105.539 144.733C86.9622 161.677 65.732 162.085 47.3597 144.937C33.0701 131.464 16.3309 123.095 0 122.891V153.307C16.3309 153.511 32.6618 161.268 46.7473 174.333C65.5278 191.685 87.7787 191.685 106.559 174.333C120.849 161.064 137.384 153.307 155.552 153.307C173.72 153.307 190.459 161.064 204.953 174.333C223.529 191.685 246.801 191.685 265.582 174.333C279.871 161.064 296.815 153.307 314.983 153.307C333.151 153.307 350.094 161.064 364.384 174.333C383.164 191.685 406.436 191.685 425.216 174.333C439.71 161.064 456.653 153.307 474.822 153.307C493.602 153.307 510.954 161.472 525.856 175.558C544.228 193.522 568.316 193.522 586.892 175.558C601.794 161.472 619.146 153.307 637.927 153.307C656.095 153.307 673.038 161.064 687.532 174.333C706.108 191.48 729.788 191.48 748.365 174.333C762.654 161.064 779.597 153.307 797.766 153.307C815.934 153.307 832.877 161.064 847.371 174.333C866.151 191.685 889.423 191.685 908.203 174.333C922.493 161.064 939.436 153.307 957.604 153.307C975.773 153.307 992.716 161.064 1007.21 174.333C1025.79 191.48 1049.47 191.48 1068.04 174.333C1082.33 161.064 1099.28 153.307 1117.44 153.307C1135.61 153.307 1152.55 161.064 1167.05 174.333C1185.62 191.48 1209.3 191.48 1227.68 174.333C1242.17 161.064 1259.11 153.307 1277.28 153.307C1295.45 153.307 1312.39 161.064 1326.89 174.333C1345.67 191.685 1368.94 191.685 1387.52 174.333C1402.01 161.064 1418.95 153.307 1437.12 153.307C1455.29 153.307 1472.23 161.064 1486.73 174.333C1505.51 191.685 1528.78 191.685 1547.35 174.333C1561.85 161.064 1578.79 153.307 1596.96 153.307C1615.13 153.307 1632.07 161.064 1646.57 174.333C1665.35 191.685 1688.41 191.685 1707.19 174.333C1721.69 161.064 1738.63 153.307 1756.8 153.307C1775.58 153.307 1793.14 161.472 1807.83 175.558C1826.41 193.522 1849.89 193.522 1868.46 175.558C1883.16 161.677 1902.55 153.511 1918.88 153.307V123.095Z" fill="#91C1F8"/>
<defs>
<linearGradient id="paint0_linear_1_376" x1="963.5" y1="96" x2="963.5" y2="154" gradientUnits="userSpaceOnUse">
<stop stop-color="white"/>
<stop offset="1" stop-color="#D6E9FF"/>
</linearGradient>
</defs>
</svg>
