<svg width="1920" height="245" viewBox="0 0 1920 245" fill="none" xmlns="http://www.w3.org/2000/svg">
<rect width="1919" height="58" transform="matrix(1 0 0 -1 0 148.964)" fill="url(#paint0_linear_1_394)"/>
<path d="M1918.5 156.573C1902.17 156.573 1882.78 148.611 1868.08 134.526C1849.5 116.562 1825.82 116.766 1807.25 134.73C1792.35 148.816 1775.2 157.185 1756.42 157.185C1738.25 157.185 1721.31 149.428 1706.81 135.955C1688.03 118.807 1664.96 118.807 1646.18 136.159C1631.69 149.428 1614.75 157.185 1596.58 157.185C1578.41 157.185 1561.47 149.428 1546.97 135.955C1528.4 118.807 1505.13 118.807 1486.35 136.159C1471.85 149.428 1454.91 157.185 1436.94 157.185H1436.74C1418.57 157.185 1401.63 149.428 1387.14 135.955C1368.56 118.807 1345.29 118.807 1326.51 136.159C1312.01 149.428 1295.07 157.185 1277.11 157.185H1276.9C1258.73 157.185 1241.79 149.428 1227.3 135.955C1208.72 118.807 1185.45 118.807 1166.67 136.159C1152.17 149.428 1135.23 157.185 1117.27 157.185H1117.06C1098.89 157.185 1081.95 149.428 1067.66 135.955C1049.09 119.012 1025.41 119.012 1006.83 136.159C992.335 149.428 975.392 157.185 957.428 157.185H957.224C939.056 157.185 922.112 149.428 907.823 135.955C889.042 118.807 865.77 118.807 846.99 136.159C832.496 149.428 815.553 157.185 797.589 157.185H797.385C779.217 157.185 762.273 149.428 747.984 135.955C729.407 119.012 705.727 119.012 687.151 136.159C672.657 149.428 655.714 157.185 637.75 157.185H637.546C618.765 157.185 601.414 148.816 586.512 134.73C567.935 116.97 543.847 116.97 525.271 134.73C510.573 148.816 493.221 157.185 474.441 157.185H474.237C456.068 157.185 439.329 149.428 424.836 135.955C406.055 118.807 382.783 118.807 364.003 136.159C349.713 149.428 332.77 157.185 314.602 157.185H314.398C296.434 157.185 279.49 149.428 264.997 135.955C246.216 118.807 222.945 118.807 204.164 136.159C189.874 149.428 172.931 157.185 154.763 157.185H154.559C136.595 157.185 119.651 149.428 105.158 135.955C86.5814 119.012 65.3512 117.991 46.9789 135.343C32.6894 148.816 15.9502 156.573 -0.380768 156.777V126.361C15.9502 126.156 32.2811 118.603 46.3665 105.539C65.1471 88.187 87.3979 88.187 106.178 105.334C120.468 118.807 137.003 126.361 155.171 126.361C173.339 126.361 190.079 118.807 204.572 105.539C223.149 88.187 246.42 88.187 265.201 105.539C279.49 118.807 296.434 126.361 314.602 126.361C332.77 126.361 349.713 118.807 364.003 105.539C382.783 88.187 406.055 88.187 424.836 105.539C439.329 118.807 456.273 126.361 474.441 126.361C493.221 126.361 510.573 118.195 525.475 104.11C543.847 86.3497 567.935 86.3497 586.512 104.11C601.414 118.195 618.765 126.361 637.546 126.361C655.714 126.361 672.657 118.807 687.151 105.539C705.727 88.3911 729.407 88.3911 747.984 105.539C762.273 118.807 779.217 126.361 797.385 126.361C815.553 126.361 832.496 118.807 846.99 105.539C865.77 88.187 889.042 88.187 907.823 105.539C922.112 118.807 939.056 126.361 957.224 126.361C975.392 126.361 992.335 118.807 1006.83 105.539C1025.41 88.3911 1049.09 88.3911 1067.66 105.539C1081.95 118.807 1098.89 126.361 1117.06 126.361C1135.23 126.361 1152.17 118.807 1166.67 105.539C1185.24 88.3911 1208.92 88.3911 1227.3 105.539C1241.79 118.807 1258.73 126.361 1276.9 126.361C1295.07 126.361 1312.01 118.807 1326.51 105.539C1345.29 88.187 1368.56 88.187 1387.14 105.539C1401.63 118.807 1418.57 126.361 1436.74 126.361C1454.91 126.361 1471.85 118.807 1486.35 105.539C1505.13 88.187 1528.4 88.187 1546.97 105.539C1561.47 118.807 1578.41 126.361 1596.58 126.361C1614.75 126.361 1631.69 118.807 1646.18 105.539C1664.96 88.187 1688.03 88.187 1706.81 105.539C1721.31 118.807 1738.25 126.361 1756.42 126.361C1775.2 126.361 1792.75 118.195 1807.45 104.11C1826.03 86.3497 1849.5 86.3497 1868.08 104.11C1882.78 117.991 1902.17 126.156 1918.5 126.361V156.573Z" fill="#24D6E9"/>
<path d="M1918.5 191.48C1902.17 191.48 1882.78 183.314 1868.08 169.229C1849.5 151.469 1825.82 150.448 1807.25 168.412C1792.35 182.498 1775.2 189.847 1756.42 189.847C1738.25 189.847 1721.31 183.11 1706.81 169.841C1688.03 152.49 1664.96 152.081 1646.18 169.229C1631.69 182.702 1614.75 189.847 1596.58 189.847C1578.41 189.847 1561.47 183.11 1546.97 169.841C1528.4 152.49 1505.13 152.081 1486.35 169.229C1471.85 182.702 1454.91 189.847 1436.94 189.847H1436.74C1418.57 189.847 1401.63 183.11 1387.14 169.841C1368.56 152.49 1345.29 152.081 1326.51 169.229C1312.01 182.702 1295.07 189.847 1277.11 189.847H1276.9C1258.73 189.847 1241.79 183.11 1227.3 169.841C1208.72 152.49 1185.45 152.081 1166.67 169.229C1152.17 182.702 1135.23 189.847 1117.27 189.847H1117.06C1098.89 189.847 1081.95 183.11 1067.66 169.841C1049.09 152.694 1025.41 152.285 1006.83 169.229C992.335 182.702 975.392 189.847 957.428 189.847H957.224C939.056 189.847 922.112 183.11 907.823 169.841C889.042 152.49 865.77 152.081 846.99 169.229C832.496 182.702 815.553 189.847 797.589 189.847H797.385C779.217 189.847 762.273 183.11 747.984 169.841C729.407 152.694 705.727 152.285 687.151 169.229C672.657 182.702 655.714 189.847 637.75 189.847H637.546C618.765 189.847 601.414 182.498 586.512 168.412C567.935 150.652 543.847 150.244 525.271 168.004C510.573 182.089 493.221 189.847 474.441 189.847H474.237C456.068 189.847 439.329 183.11 424.836 169.841C406.055 152.49 382.783 152.081 364.003 169.229C349.713 182.702 332.77 189.847 314.602 189.847H314.398C296.434 189.847 279.49 183.11 264.997 169.841C246.216 152.49 222.945 152.081 204.164 169.229C189.874 182.702 172.931 189.847 154.763 189.847H154.559C136.595 189.847 119.651 183.11 105.158 169.841C86.5814 152.694 65.3512 152.285 46.9789 169.637C32.6894 183.11 15.9502 191.48 -0.380768 191.684V161.267C15.9502 160.859 32.2811 153.306 46.3665 140.241C65.1471 122.89 87.3979 122.89 106.178 140.241C120.468 153.51 137.003 161.267 155.171 161.267C173.339 161.267 190.079 153.51 204.572 140.241C223.149 122.89 246.42 122.89 265.201 140.241C279.49 153.51 296.434 161.267 314.602 161.267C332.77 161.267 349.713 153.51 364.003 140.241C382.783 122.89 406.055 122.89 424.836 140.241C439.329 153.51 456.273 161.267 474.441 161.267C493.221 161.267 510.573 153.102 525.475 138.812C543.847 121.053 567.935 121.053 586.512 138.812C601.414 153.102 618.765 161.267 637.546 161.267C655.714 161.267 672.657 153.51 687.151 140.241C705.727 123.094 729.407 123.094 747.984 140.241C762.273 153.51 779.217 161.267 797.385 161.267C815.553 161.267 832.496 153.51 846.99 140.241C865.77 122.89 889.042 122.89 907.823 140.241C922.112 153.51 939.056 161.267 957.224 161.267C975.392 161.267 992.335 153.51 1006.83 140.241C1025.41 123.094 1049.09 123.094 1067.66 140.241C1081.95 153.51 1098.89 161.267 1117.06 161.267C1135.23 161.267 1152.17 153.51 1166.67 140.241C1185.24 123.094 1208.92 123.094 1227.3 140.241C1241.79 153.51 1258.73 161.267 1276.9 161.267C1295.07 161.267 1312.01 153.51 1326.51 140.241C1345.29 122.89 1368.56 122.89 1387.14 140.241C1401.63 153.51 1418.57 161.267 1436.74 161.267C1454.91 161.267 1471.85 153.51 1486.35 140.241C1505.13 122.89 1528.4 122.89 1546.97 140.241C1561.47 153.51 1578.41 161.267 1596.58 161.267C1614.75 161.267 1631.69 153.51 1646.18 140.241C1664.96 122.89 1688.03 122.89 1706.81 140.241C1721.31 153.51 1738.25 161.267 1756.42 161.267C1775.2 161.267 1792.75 153.102 1807.45 138.812C1826.03 121.053 1849.5 121.053 1868.08 138.812C1882.78 152.898 1902.17 161.063 1918.5 161.267V191.48Z" fill="#3AF6FF"/>
<path d="M1918.5 121.869C1902.17 121.869 1882.78 113.704 1868.08 99.6182C1849.5 81.8583 1825.82 81.0418 1807.25 98.8016C1792.35 113.091 1775.2 120.44 1756.42 120.44C1738.25 120.44 1721.31 113.499 1706.81 100.231C1688.03 83.0831 1664.96 82.6748 1646.18 99.8223C1631.69 113.091 1614.75 120.44 1596.58 120.44C1578.41 120.44 1561.47 113.499 1546.97 100.231C1528.4 83.0831 1505.13 82.6748 1486.35 99.8223C1471.85 113.091 1454.91 120.44 1436.94 120.44H1436.74C1418.57 120.44 1401.63 113.499 1387.14 100.231C1368.56 83.0831 1345.29 82.6748 1326.51 99.8223C1312.01 113.091 1295.07 120.44 1277.11 120.44H1276.9C1258.73 120.44 1241.79 113.499 1227.3 100.231C1208.72 83.0831 1185.45 82.6748 1166.67 99.8223C1152.17 113.091 1135.23 120.44 1117.27 120.44H1117.06C1098.89 120.44 1081.95 113.499 1067.66 100.231C1049.09 83.2872 1025.41 82.879 1006.83 99.8223C992.335 113.091 975.392 120.44 957.428 120.44H957.224C939.056 120.44 922.112 113.499 907.823 100.231C889.042 83.0831 865.77 82.6748 846.99 99.8223C832.496 113.091 815.553 120.44 797.589 120.44H797.385C779.217 120.44 762.273 113.499 747.984 100.231C729.407 83.2872 705.727 82.879 687.151 99.8223C672.657 113.091 655.714 120.44 637.75 120.44H637.546C618.765 120.44 601.414 113.091 586.512 99.0058C567.935 81.0417 543.847 80.6335 525.271 98.5975C510.573 112.683 493.221 120.44 474.441 120.44H474.237C456.068 120.44 439.329 113.499 424.836 100.231C406.055 83.0831 382.783 82.6748 364.003 99.8223C349.713 113.091 332.77 120.44 314.602 120.44H314.398C296.434 120.44 279.49 113.499 264.997 100.231C246.216 83.0831 222.945 82.6748 204.164 99.8223C189.874 113.091 172.931 120.44 154.763 120.44H154.559C136.595 120.44 119.651 113.499 105.158 100.231C86.5814 83.2872 65.3512 82.879 46.9789 100.026C32.6894 113.499 15.9502 121.869 -0.380768 122.073V91.6568C15.9502 91.4527 32.2811 83.6955 46.3665 70.6308C65.1471 53.2792 87.3979 53.2792 106.178 70.6308C120.468 83.8997 137.003 91.6568 155.171 91.6568C173.339 91.6568 190.079 83.8997 204.572 70.6308C223.149 53.2792 246.42 53.2792 265.201 70.6308C279.49 83.8997 296.434 91.6568 314.602 91.6568C332.77 91.6568 349.713 83.8997 364.003 70.6308C382.783 53.2792 406.055 53.2792 424.836 70.6308C439.329 83.8997 456.273 91.6568 474.441 91.6568C493.221 91.6568 510.573 83.4914 525.475 69.406C543.847 51.442 567.935 51.442 586.512 69.406C601.414 83.4914 618.765 91.6568 637.546 91.6568C655.714 91.6568 672.657 83.8997 687.151 70.6308C705.727 53.4833 729.407 53.4833 747.984 70.6308C762.273 83.8997 779.217 91.6568 797.385 91.6568C815.553 91.6568 832.496 83.8997 846.99 70.6308C865.77 53.2792 889.042 53.2792 907.823 70.6308C922.112 83.8997 939.056 91.6568 957.224 91.6568C975.392 91.6568 992.335 83.8997 1006.83 70.6308C1025.41 53.4833 1049.09 53.4833 1067.66 70.6308C1081.95 83.8997 1098.89 91.6568 1117.06 91.6568C1135.23 91.6568 1152.17 83.8997 1166.67 70.6308C1185.24 53.4833 1208.92 53.4833 1227.3 70.6308C1241.79 83.8997 1258.73 91.6568 1276.9 91.6568C1295.07 91.6568 1312.01 83.8997 1326.51 70.6308C1345.29 53.2792 1368.56 53.2792 1387.14 70.6308C1401.63 83.8997 1418.57 91.6568 1436.74 91.6568C1454.91 91.6568 1471.85 83.8997 1486.35 70.6308C1505.13 53.2792 1528.4 53.2792 1546.97 70.6308C1561.47 83.8997 1578.41 91.6568 1596.58 91.6568C1614.75 91.6568 1631.69 83.8997 1646.18 70.6308C1664.96 53.2792 1688.03 53.2792 1706.81 70.6308C1721.31 83.8997 1738.25 91.6568 1756.42 91.6568C1775.2 91.6568 1792.75 83.4914 1807.45 69.406C1826.03 51.442 1849.5 51.442 1868.08 69.406C1882.78 83.2873 1902.17 91.4527 1918.5 91.6568V121.869Z" fill="#91C1F8"/>
<defs>
<linearGradient id="paint0_linear_1_394" x1="959.5" y1="0" x2="959.5" y2="58" gradientUnits="userSpaceOnUse">
<stop stop-color="white"/>
<stop offset="1" stop-color="#D6E9FF"/>
</linearGradient>
</defs>
</svg>
