<svg width="124" height="26" viewBox="0 0 124 26" fill="none" xmlns="http://www.w3.org/2000/svg">
<path d="M8.048 23C6.16 23 4.77333 22.5573 3.888 21.672C3.00267 20.7867 2.56 19.4 2.56 17.512C2.56 17.256 2.63467 17.0533 2.784 16.904C2.944 16.7547 3.152 16.68 3.408 16.68C3.664 16.68 3.86667 16.7547 4.016 16.904C4.16533 17.0533 4.24 17.256 4.24 17.512C4.24 18.9413 4.51733 19.9333 5.072 20.488C5.63733 21.0427 6.62933 21.32 8.048 21.32H12.464C13.8827 21.32 14.8693 21.0427 15.424 20.488C15.9787 19.9333 16.256 18.9413 16.256 17.512C16.256 16.0827 15.9787 15.096 15.424 14.552C14.8693 13.9973 13.8827 13.72 12.464 13.72H8.528C6.72533 13.72 5.40267 13.272 4.56 12.376C3.71733 11.4693 3.296 10.1253 3.296 8.344C3.296 6.54133 3.712 5.224 4.544 4.392C5.38667 3.56 6.704 3.144 8.496 3.144H12.368C14.16 3.144 15.472 3.56 16.304 4.392C17.136 5.224 17.552 6.53067 17.552 8.312C17.552 8.568 17.4773 8.77067 17.328 8.92C17.1787 9.06933 16.976 9.144 16.72 9.144C16.464 9.144 16.256 9.06933 16.096 8.92C15.9467 8.77067 15.872 8.568 15.872 8.312C15.872 7.01067 15.616 6.104 15.104 5.592C14.592 5.08 13.68 4.824 12.368 4.824H8.496C7.184 4.824 6.26667 5.08 5.744 5.592C5.232 6.104 4.976 7.02133 4.976 8.344C4.976 9.64533 5.232 10.5893 5.744 11.176C6.26667 11.752 7.19467 12.04 8.528 12.04H12.464C14.352 12.04 15.7333 12.4827 16.608 13.368C17.4933 14.2427 17.936 15.624 17.936 17.512C17.936 19.4 17.4933 20.7867 16.608 21.672C15.7333 22.5573 14.352 23 12.464 23H8.048ZM10.32 25.688C9.79733 25.688 9.536 25.4267 9.536 24.904V13.112L9.68 12.552V0.775999C9.68 0.253332 9.94133 -0.00800133 10.464 -0.00800133C10.9867 -0.00800133 11.248 0.253332 11.248 0.775999V12.68L11.104 13.24V24.904C11.104 25.4267 10.8427 25.688 10.32 25.688ZM29.732 23C27.4173 23 25.7267 22.4667 24.66 21.4C23.5933 20.3333 23.06 18.6427 23.06 16.328V9.048C23.06 6.712 23.588 5.016 24.644 3.96C25.7107 2.904 27.396 2.376 29.7 2.376H33.572C35.5347 2.376 36.996 2.78667 37.956 3.608C38.916 4.41867 39.444 5.72533 39.54 7.528C39.572 7.816 39.5133 8.03467 39.364 8.184C39.2253 8.33333 39.0173 8.408 38.74 8.408C38.2067 8.408 37.9133 8.12533 37.86 7.56C37.7853 6.23733 37.4227 5.32533 36.772 4.824C36.1213 4.312 35.0547 4.056 33.572 4.056H29.7C28.4733 4.056 27.4973 4.216 26.772 4.536C26.0467 4.84533 25.524 5.368 25.204 6.104C24.8947 6.82933 24.74 7.81067 24.74 9.048V16.328C24.74 17.5653 24.9 18.5467 25.22 19.272C25.54 19.9973 26.0627 20.52 26.788 20.84C27.5133 21.16 28.4947 21.32 29.732 21.32H33.572C35.0547 21.32 36.1213 21.0693 36.772 20.568C37.4227 20.056 37.7853 19.1387 37.86 17.816C37.9133 17.2507 38.2067 16.968 38.74 16.968C39.0173 16.968 39.2253 17.048 39.364 17.208C39.5133 17.3573 39.572 17.5707 39.54 17.848C39.444 19.6507 38.916 20.9627 37.956 21.784C36.996 22.5947 35.5347 23 33.572 23H29.732ZM58.7253 23.032C58.4906 23.1707 58.2773 23.2187 58.0853 23.176C57.8933 23.1333 57.7226 23 57.5733 22.776L52.3253 14.424H46.4533V22.152C46.4533 22.7173 46.1759 23 45.6213 23C45.0559 23 44.7733 22.7173 44.7733 22.152V3.224C44.7733 2.65867 45.0559 2.376 45.6213 2.376H53.1093C54.9333 2.376 56.3093 2.84533 57.2373 3.784C58.1759 4.72267 58.6453 6.104 58.6453 7.928V8.888C58.6453 10.4987 58.2773 11.7627 57.5413 12.68C56.8053 13.5973 55.7173 14.1573 54.2773 14.36L58.9973 21.88C59.2959 22.3707 59.2053 22.7547 58.7253 23.032ZM46.4533 12.744H53.1093C54.4533 12.744 55.4293 12.44 56.0373 11.832C56.6559 11.2133 56.9653 10.232 56.9653 8.888V7.928C56.9653 6.57333 56.6559 5.592 56.0373 4.984C55.4293 4.36533 54.4533 4.056 53.1093 4.056H46.4533V12.744ZM62.126 22.92C61.614 22.696 61.4593 22.3227 61.662 21.8L69.598 3.032C69.7687 2.59467 70.0833 2.376 70.542 2.376H70.638C71.0753 2.38667 71.3847 2.60533 71.566 3.032L79.502 21.8C79.7153 22.3227 79.566 22.696 79.054 22.92C78.5313 23.1333 78.1687 22.984 77.966 22.472L75.838 17.432H65.358L63.23 22.472C63.0167 22.984 62.6487 23.1333 62.126 22.92ZM66.046 15.752H75.134L70.59 5.032L66.046 15.752ZM84.2463 23C83.6809 23 83.3983 22.7173 83.3983 22.152V3.224C83.3983 2.65867 83.6809 2.376 84.2463 2.376H92.5983C94.1663 2.376 95.3503 2.776 96.1503 3.576C96.9609 4.36533 97.3663 5.528 97.3663 7.064V7.928C97.3663 9.60267 96.8276 10.7867 95.7503 11.48C97.6169 12.248 98.5503 13.912 98.5503 16.472V17.48C98.5503 19.2933 98.0809 20.6693 97.1423 21.608C96.2143 22.536 94.8383 23 93.0143 23H84.2463ZM85.0783 21.32H93.0143C94.3689 21.32 95.3503 21.016 95.9583 20.408C96.5663 19.8 96.8703 18.824 96.8703 17.48V16.472C96.8703 15.128 96.5663 14.1573 95.9583 13.56C95.3609 12.9627 94.3796 12.664 93.0143 12.664H85.0783V21.32ZM85.0783 10.984H92.8383C93.8089 10.984 94.5236 10.7387 94.9823 10.248C95.4516 9.74667 95.6863 8.97333 95.6863 7.928V7.064C95.6863 5.99733 95.4409 5.22933 94.9503 4.76C94.4703 4.29067 93.6863 4.056 92.5983 4.056H85.0783V10.984Z" fill="white"/>
<path d="M108.554 11.6377L108.008 12.501L101.394 1.97656H102.473L108.554 11.6377ZM113.061 18.5059L113.594 17.6426L116.971 23H115.892L113.061 18.5059ZM109.633 9.93652L109.087 10.7871L103.552 1.97656H104.618L109.633 9.93652ZM114.14 16.792L114.673 15.9287L119.129 23H118.05L114.14 16.792ZM110.712 8.20996L110.179 9.06055L105.71 1.97656H106.789L110.712 8.20996ZM115.231 15.0654L115.765 14.2021L121.3 23H120.221L115.231 15.0654ZM111.791 6.49609L111.258 7.35938L107.868 1.97656H108.947L111.791 6.49609ZM116.298 13.3516L116.831 12.4883L123.458 23H122.379L116.298 13.3516ZM121.744 1.97656H122.823L109.595 23H108.516L121.744 1.97656ZM119.599 1.97656H120.665L107.437 23H106.357L119.599 1.97656ZM117.428 1.97656H118.507L105.266 23H104.187L117.428 1.97656ZM115.27 1.97656H116.349L103.107 23H102.028L115.27 1.97656Z" fill="white"/>
</svg>
