<svg width="157" height="60" viewBox="0 0 157 60" fill="none" xmlns="http://www.w3.org/2000/svg">
<path d="M14.1195 44.9412C10.5795 44.9412 7.99373 44.1255 6.36235 42.4941C4.73098 40.8627 3.91529 38.277 3.91529 34.7369V23.6028C3.91529 20.0301 4.72282 17.4362 6.33788 15.8212C7.96926 14.2061 10.5468 13.3986 14.0706 13.3986H19.9925C22.9942 13.3986 25.2292 14.0267 26.6974 15.2828C28.1657 16.5227 28.9732 18.5211 29.12 21.2781C29.1689 21.7186 29.0792 22.053 28.8508 22.2814C28.6387 22.5098 28.3206 22.624 27.8965 22.624C27.0808 22.624 26.6322 22.1917 26.5506 21.327C26.4364 19.3041 25.8817 17.9093 24.8866 17.1426C23.8915 16.3595 22.2601 15.968 19.9925 15.968H14.0706C12.1945 15.968 10.7018 16.2127 9.59247 16.7021C8.48314 17.1752 7.68376 17.9746 7.19435 19.1002C6.72126 20.2096 6.48471 21.7104 6.48471 23.6028V34.7369C6.48471 36.6293 6.72941 38.1302 7.21882 39.2395C7.70824 40.3488 8.50761 41.1482 9.61694 41.6376C10.7263 42.127 12.2271 42.3718 14.1195 42.3718H19.9925C22.2601 42.3718 23.8915 41.9884 24.8866 41.2216C25.8817 40.4386 26.4364 39.0356 26.5506 37.0127C26.6322 36.1481 27.0808 35.7158 27.8965 35.7158C28.3206 35.7158 28.6387 35.8381 28.8508 36.0828C29.0792 36.3112 29.1689 36.6375 29.12 37.0616C28.9732 39.8187 28.1657 41.8252 26.6974 43.0814C25.2292 44.3212 22.9942 44.9412 19.9925 44.9412H14.1195ZM58.4621 44.9901C58.1032 45.2022 57.777 45.2756 57.4833 45.2103C57.1897 45.1451 56.9287 44.9412 56.7003 44.5986L48.6739 31.8249H39.6932V43.6442C39.6932 44.5088 39.269 44.9412 38.4207 44.9412C37.5561 44.9412 37.1238 44.5088 37.1238 43.6442V14.6955C37.1238 13.8309 37.5561 13.3986 38.4207 13.3986H49.873C52.6626 13.3986 54.7671 14.1164 56.1864 15.552C57.622 16.9876 58.3398 19.1002 58.3398 21.8899V23.3581C58.3398 25.8215 57.777 27.7547 56.6513 29.1576C55.5257 30.5606 53.8617 31.4171 51.6593 31.727L58.8782 43.2282C59.3349 43.9787 59.1963 44.5659 58.4621 44.9901ZM39.6932 29.2555H49.873C51.9285 29.2555 53.4212 28.7906 54.3511 27.8607C55.2973 26.9145 55.7704 25.4136 55.7704 23.3581V21.8899C55.7704 19.818 55.2973 18.3172 54.3511 17.3873C53.4212 16.4411 51.9285 15.968 49.873 15.968H39.6932V29.2555ZM63.6633 44.8188C62.8802 44.4762 62.6437 43.9052 62.9536 43.1059L75.0911 14.4019C75.3521 13.733 75.8333 13.3986 76.5348 13.3986H76.6816C77.3505 13.4149 77.8236 13.7493 78.1009 14.4019L90.2384 43.1059C90.5646 43.9052 90.3362 44.4762 89.5532 44.8188C88.7538 45.1451 88.1991 44.9167 87.8892 44.1336L84.6346 36.4254H68.6064L65.3518 44.1336C65.0255 44.9167 64.4627 45.1451 63.6633 44.8188ZM69.6586 33.856H83.5579L76.6082 17.4607L69.6586 33.856ZM97.4943 44.9412C96.6296 44.9412 96.1973 44.5088 96.1973 43.6442V14.6955C96.1973 13.8309 96.6296 13.3986 97.4943 13.3986H110.268C112.666 13.3986 114.477 14.0103 115.7 15.2339C116.94 16.4411 117.56 18.2193 117.56 20.5685V21.8899C117.56 24.4511 116.736 26.2619 115.089 27.3223C117.944 28.4969 119.371 31.0419 119.371 34.9572V36.4988C119.371 39.2721 118.653 41.3766 117.218 42.8122C115.798 44.2315 113.694 44.9412 110.904 44.9412H97.4943ZM98.7667 42.3718H110.904C112.976 42.3718 114.477 41.9068 115.407 40.9769C116.337 40.047 116.802 38.5543 116.802 36.4988V34.9572C116.802 32.9016 116.337 31.4171 115.407 30.5035C114.493 29.5899 112.992 29.1332 110.904 29.1332H98.7667V42.3718ZM98.7667 26.5637H110.635C112.12 26.5637 113.213 26.1885 113.914 25.4381C114.632 24.6714 114.991 23.4886 114.991 21.8899V20.5685C114.991 18.9371 114.616 17.7625 113.865 17.0447C113.131 16.3269 111.932 15.968 110.268 15.968H98.7667V26.5637Z" fill="black"/>
<path d="M133.461 27.291L132.659 28.5605L122.932 13.0834H124.519L133.461 27.291ZM140.089 37.3912L140.873 36.1217L145.839 44.0002H144.252L140.089 37.3912ZM135.048 24.7892L134.245 26.0401L126.106 13.0834H127.674L135.048 24.7892ZM141.676 34.8708L142.46 33.6013L149.013 44.0002H147.426L141.676 34.8708ZM136.635 22.2502L135.851 23.501L129.279 13.0834H130.866L136.635 22.2502ZM143.282 32.3318L144.066 31.0622L152.206 44.0002H150.619L143.282 32.3318ZM138.222 19.7298L137.438 20.9993L132.453 13.0834H134.04L138.222 19.7298ZM144.85 29.8114L145.634 28.5418L155.379 44.0002H153.793L144.85 29.8114ZM152.859 13.0834H154.446L134.992 44.0002H133.405L152.859 13.0834ZM149.704 13.0834H151.272L131.818 44.0002H130.232L149.704 13.0834ZM146.511 13.0834H148.098L128.626 44.0002H127.039L146.511 13.0834ZM143.338 13.0834H144.924L125.452 44.0002H123.865L143.338 13.0834Z" fill="black"/>
</svg>
