<svg width="61" height="60" viewBox="0 0 61 60" fill="none" xmlns="http://www.w3.org/2000/svg">
<path d="M30.1105 0H29.9739C13.4479 0 0.0510254 13.4009 0.0510254 29.9317V30.0683C0.0510254 46.5991 13.4479 60 29.9739 60H30.1105C46.6364 60 60.0333 46.5991 60.0333 30.0683V29.9317C60.0333 13.4009 46.6364 0 30.1105 0Z" fill="#FE5638"/>
<path d="M11.4118 28.9773C11.4959 28.9353 11.58 28.8954 11.662 28.8575C13.0868 28.1975 14.5305 27.5795 15.9721 26.9614C16.0498 26.9614 16.1801 26.871 16.2536 26.8416C16.365 26.7933 16.4764 26.747 16.5878 26.6987C16.8022 26.6062 17.0165 26.5158 17.2288 26.4233C17.6575 26.2404 18.084 26.0575 18.5127 25.8747L21.0786 24.7753C22.7892 24.0437 24.502 23.3101 26.2126 22.5786C27.9232 21.847 29.6358 21.1134 31.3464 20.3819C33.057 19.6504 34.7697 18.9167 36.4803 18.1852C38.1909 17.4537 39.9037 16.72 41.6143 15.9885C41.9946 15.8246 42.4065 15.5807 42.8142 15.5092C43.1567 15.4483 43.4908 15.3306 43.8355 15.2654C44.489 15.1414 45.2098 15.0909 45.8361 15.3621C46.0525 15.4567 46.2522 15.5891 46.4182 15.7552C47.2126 16.5414 47.1012 17.832 46.933 18.9377C45.7625 26.644 44.592 34.3524 43.4194 42.0587C43.2597 43.116 43.0411 44.2764 42.2068 44.9448C41.5007 45.5103 40.4962 45.5734 39.6241 45.3337C38.752 45.092 37.9829 44.5854 37.2285 44.0872C34.0994 42.0145 30.9682 39.9418 27.8391 37.8692C27.0952 37.3773 26.2672 36.7341 26.2756 35.8407C26.2798 35.3025 26.6013 34.8233 26.9291 34.3965C29.6484 30.8482 33.5719 28.4098 36.4908 25.0254C36.9027 24.5482 37.2264 23.6864 36.6611 23.411C36.3248 23.247 35.9381 23.4699 35.6313 23.6822C31.773 26.3623 27.9169 29.0446 24.0585 31.7248C22.7998 32.5992 21.48 33.4989 19.9628 33.7134C18.6052 33.9067 17.2393 33.5284 15.9259 33.1416C14.8247 32.8179 13.7256 32.4857 12.6307 32.1431C12.0486 31.9623 11.4476 31.7668 10.9979 31.3569C10.5481 30.947 10.2897 30.2575 10.5608 29.711C10.731 29.3683 11.0609 29.1518 11.4077 28.9752L11.4118 28.9773Z" fill="#FEFFFC"/>
</svg>
