<svg width="60" height="60" viewBox="0 0 60 60" fill="none" xmlns="http://www.w3.org/2000/svg">
<path d="M59.9958 30.001C59.9958 45.1529 48.7677 57.6793 34.1814 59.712C32.8175 59.9012 31.4221 60 30.0057 60C28.3708 60 26.7653 59.8697 25.2018 59.6174C10.9223 57.3177 0.015625 44.9322 0.015625 30.001C0.015625 13.4324 13.444 0 30.0078 0C46.5716 0 60 13.4324 60 30.001H59.9958Z" fill="#FE5638"/>
<path d="M12.1796 13.2327L26.0114 31.7311L12.0934 46.7715H15.2267L27.4131 33.604L37.2585 46.7715H47.9193L33.3098 27.2326L46.2654 13.2327H43.1321L31.9103 25.3596L22.8424 13.2327H12.1816H12.1796ZM16.786 15.5408H21.6824L43.3087 44.4634H38.4122L16.786 15.5408Z" fill="white"/>
</svg>
